<svg xmlns="http://www.w3.org/2000/svg" width="150" height="80" viewBox="0 0 295.948 162.733"><defs><clipPath id="a"><path data-name="Path 143" d="M0 140.912h295.948V-21.821H0z" transform="translate(0 21.821)" fill="none"/></clipPath></defs><g data-name="Group 218"><g data-name="Group 217" clip-path="url(#a)"><g data-name="Group 215"><path data-name="Path 141" d="M295.947 4.573V.001q-10.672.671-28.891.671H256.28l-48.9 131.742-50-132.41q-7.453.668-19.452.668-13.67 0-21.113-.671v4.572q8.222.336 11.947 1.782a28.516 28.516 0 0 1 11.724 8.248l57.334 148.131h3.669l54.791-147.46V137.43q0 8.58-1.395 12.484a8.533 8.533 0 0 1-5.056 5.355q-3.669 1.443-11.887 1.782v4.563q9.553-.671 29.115-.664 18.223 0 28.891.664v-4.564q-8.222-.347-11.947-1.782a8.517 8.517 0 0 1-5.108-5.355q-1.387-3.9-1.395-12.484V24.186q0-8.58 1.395-12.484a8.523 8.523 0 0 1 5.108-5.347q3.724-1.441 11.946-1.782" fill="#fff"/></g><g data-name="Group 216"><path data-name="Path 142" d="M39.562 137.874V23.743q0-8.133 1.335-12.26a8.987 8.987 0 0 1 4.885-5.742Q49.339 4.13 56.454 4.13q23.335 0 37.169 8.188t19.948 24.744q6.108 16.545 6.108 42.859 0 26.187-5.608 43.075t-19.39 25.696q-13.777 8.8-38.004 8.8-7.226 0-10.836-1.618a8.932 8.932 0 0 1-4.944-5.683q-1.342-4.072-1.335-12.32M.004.005v4.564q8.222.347 11.947 1.782a8.517 8.517 0 0 1 5.108 5.355q1.4 3.9 1.395 12.484v113.244q0 8.58-1.395 12.484a8.505 8.505 0 0 1-5.108 5.347q-3.73 1.443-11.947 1.783v4.572q9.553-.671 28.227-.671 5.336 0 17.056.336t14.841.336q25.774 0 44.336-10.2a68.248 68.248 0 0 0 28.279-28.868q9.721-18.659 9.725-43.523 0-38.672-20.054-58.848T62.121.005q-3 0-34.335.664l-5.563.112q-10 0-22.224-.776" fill="#fff"/></g></g></g></svg>